HIERARCHY
ROOT Hips
{
 OFFSET 0.000000 0.000000 0.000000
 CHANNELS 6 Xposition Yposition Zposition Yrotation Xrotation Zrotation
 JOINT Chest
 {
  OFFSET 0.000000 9.585900 0.002600
  CHANNELS 3 Yrotation Xrotation Zrotation
  JOINT Chest2
  {
   OFFSET 0.000000 9.601200 -0.005300
   CHANNELS 3 Yrotation Xrotation Zrotation
   JOINT Chest3
   {
    OFFSET 0.000000 9.561800 0.000000
    CHANNELS 3 Yrotation Xrotation Zrotation
    JOINT Chest4
    {
     OFFSET 0.000000 9.552100 0.000000
     CHANNELS 3 Yrotation Xrotation Zrotation
     JOINT Neck
     {
      OFFSET 0.000000 14.453000 0.000000
      CHANNELS 3 Yrotation Xrotation Zrotation
      JOINT Head
      {
       OFFSET 0.000000 8.936500 -0.011300
       CHANNELS 3 Yrotation Xrotation Zrotation
       End Site
       {
        OFFSET 0.000000 17.073600 -0.006000
       }
      }
     }
     JOINT RightCollar
     {
      OFFSET -2.921100 9.558500 0.000000
      CHANNELS 3 Yrotation Xrotation Zrotation
      JOINT RightShoulder
      {
       OFFSET -13.519700 0.000000 0.000000
       CHANNELS 3 Yrotation Xrotation Zrotation
       JOINT RightElbow
       {
        OFFSET 0.000000 -29.696600 0.000000
        CHANNELS 3 Yrotation Xrotation Zrotation
        JOINT RightWrist
        {
         OFFSET 0.000000 -24.004700 0.000000
         CHANNELS 3 Yrotation Xrotation Zrotation
         End Site
         {
          OFFSET 0.000000 -17.728500 0.000000
         }
        }
       }
      }
     }
     JOINT LeftCollar
     {
      OFFSET 2.921100 9.558500 0.000000
      CHANNELS 3 Yrotation Xrotation Zrotation
      JOINT LeftShoulder
      {
       OFFSET 13.519700 0.000000 0.000000
       CHANNELS 3 Yrotation Xrotation Zrotation
       JOINT LeftElbow
       {
        OFFSET 0.000000 -29.696600 0.000000
        CHANNELS 3 Yrotation Xrotation Zrotation
        JOINT LeftWrist
        {
         OFFSET 0.000000 -24.004700 0.000000
         CHANNELS 3 Yrotation Xrotation Zrotation
         End Site
         {
          OFFSET 0.000000 -17.728500 0.000000
         }
        }
       }
      }
     }
    }
   }
  }
 }
 JOINT RightHip
 {
  OFFSET -7.771700 -0.012900 -0.001300
  CHANNELS 3 Yrotation Xrotation Zrotation
  JOINT RightKnee
  {
   OFFSET 0.000000 -40.869800 0.001200
   CHANNELS 3 Yrotation Xrotation Zrotation
   JOINT RightAnkle
   {
    OFFSET 0.000000 -39.717900 0.002100
    CHANNELS 3 Yrotation Xrotation Zrotation
    JOINT RightToe
    {
     OFFSET 0.000000 -4.965400 11.033500
     CHANNELS 3 Yrotation Xrotation Zrotation
     End Site
     {
      OFFSET 0.000000 -1.423100 5.872300
     }
    }
   }
  }
 }
 JOINT LeftHip
 {
  OFFSET 7.771700 -0.012900 -0.001300
  CHANNELS 3 Yrotation Xrotation Zrotation
  JOINT LeftKnee
  {
   OFFSET 0.000000 -40.869800 0.001200
   CHANNELS 3 Yrotation Xrotation Zrotation
   JOINT LeftAnkle
   {
    OFFSET 0.000000 -39.717900 0.002100
    CHANNELS 3 Yrotation Xrotation Zrotation
    JOINT LeftToe
    {
     OFFSET 0.000000 -4.965400 11.033500
     CHANNELS 3 Yrotation Xrotation Zrotation
     End Site
     {
      OFFSET 0.000000 -1.423100 5.872300
     }
    }
   }
  }
 }
}
MOTION
Frames: 7
Frame Time: 0.008333
1.580185 49.597080 41.648094 173.104771 -34.933539 -7.160381 5.858004 18.493724 6.000209 0.634782 2.312231 0.546306 1.054952 3.789696 0.906573 5.017342 16.066013 4.515767 -1.744969 15.983951 1.442743 -3.739899 -5.970564 3.338098 -0.738470 -1.377685 -2.668986 4.176907 -6.912064 2.669424 47.850114 -76.537824 -63.150309 4.070548 3.771625 13.144597 -9.455487 -0.763991 -1.192746 3.597630 -3.027154 -1.508642 -89.260301 -77.179080 106.967393 9.108311 3.916357 -22.089137 2.198923 -45.910039 8.511273 -88.575365 82.565371 -76.095219 -0.328933 -7.964584 -3.352966 -0.008484 0.678419 -0.110149 -11.033313 -49.816460 16.772981 -151.292206 83.996604 -158.071744 0.439228 -12.865724 6.401243 -0.128869 -0.538002 0.037881
1.601069 49.620894 41.635027 173.106772 -34.857208 -7.155148 5.847968 18.454550 6.004554 0.636277 2.327127 0.555714 1.054173 3.801947 0.918073 5.007795 16.016040 4.480945 -1.743149 16.005139 1.449203 -3.729343 -5.933842 3.340767 -0.766725 -1.351329 -2.654547 4.105429 -6.873502 2.637220 48.742027 -76.533498 -64.027412 4.181835 3.873584 13.740563 -9.446936 -0.755817 -1.207063 3.664158 -3.049512 -1.497682 -89.272164 -76.954997 107.006400 8.982899 3.938049 -22.529458 1.928618 -45.916469 8.617189 -88.513862 82.632238 -76.101233 -0.306470 -8.147507 -3.504237 0.008099 0.723042 -0.056837 -11.122374 -49.876304 16.918361 -150.631081 83.941163 -157.508820 0.429585 -12.858787 6.447859 -0.126415 -0.567276 0.037619
1.623691 49.642378 41.620701 173.118599 -34.784413 -7.158506 5.827851 18.395806 5.999567 0.643609 2.351750 0.569917 1.052783 3.791369 0.915064 5.007312 15.996154 4.473405 -1.743084 16.025167 1.454182 -3.728017 -5.908826 3.343417 -0.786250 -1.345577 -2.662256 4.005976 -6.809556 2.626878 49.649406 -76.518101 -64.908720 4.290523 3.978129 14.353636 -9.453002 -0.755539 -1.216858 3.737798 -3.062431 -1.494678 -89.243813 -76.740351 107.014022 8.849417 3.978585 -22.994476 1.625671 -45.918965 8.754639 -88.448443 82.687856 -76.124120 -0.295488 -8.331723 -3.642690 0.039565 0.814772 -0.025041 -11.190044 -49.936603 17.018651 -150.199442 83.897963 -157.131929 0.433485 -12.865982 6.472247 -0.127186 -0.585445 0.024047
1.645910 49.661982 41.606113 173.142869 -34.708973 -7.161934 5.805171 18.365829 6.005690 0.644621 2.336173 0.563200 1.054458 3.787495 0.916105 5.007300 15.975179 4.467430 -1.735624 16.057158 1.464474 -3.738461 -5.890559 3.344184 -0.804564 -1.342616 -2.677831 3.893530 -6.731054 2.621353 50.611526 -76.494775 -65.834348 4.411036 4.094060 14.979108 -9.445045 -0.729747 -1.222650 3.789664 -3.095267 -1.504565 -89.179890 -76.519967 106.998921 8.701121 4.038755 -23.486783 1.310046 -45.929810 8.895259 -88.469303 82.726409 -76.244858 -0.283436 -8.512880 -3.761778 0.064907 0.838217 -0.001627 -11.236540 -50.005910 17.062063 -150.019802 83.870337 -156.963844 0.447528 -12.876898 6.457717 -0.135202 -0.599116 0.004566
1.666619 49.680568 41.591151 173.165520 -34.636176 -7.153568 5.810072 18.378334 6.029989 0.615580 2.261665 0.526282 1.063669 3.798456 0.925444 4.997037 15.954764 4.455123 -1.726937 16.079954 1.470943 -3.745238 -5.855403 3.349718 -0.806641 -1.345859 -2.689474 3.773334 -6.633693 2.613175 51.653818 -76.463959 -66.836926 4.557517 4.223664 15.618022 -9.435661 -0.704327 -1.221891 3.844331 -3.119774 -1.524000 -89.110815 -76.279492 106.993365 8.527006 4.124000 -24.008011 1.014584 -45.953198 9.018469 -88.635507 82.749461 -76.513336 -0.262297 -8.675428 -3.852555 0.082545 0.841100 0.004411 -11.264973 -50.071926 17.093294 -149.840540 83.846245 -156.810152 0.455245 -12.892470 6.479678 -0.149798 -0.604184 -0.013533
1.686353 49.697777 41.577367 173.174108 -34.561358 -7.134049 5.793945 18.327647 6.009696 0.621568 2.272931 0.534105 1.055006 3.776026 0.914337 4.994944 15.942117 4.449701 -1.728051 16.091412 1.473000 -3.745936 -5.802735 3.356702 -0.810850 -1.345202 -2.693685 3.662913 -6.529484 2.597227 52.809581 -76.416529 -67.957328 4.732556 4.370811 16.275448 -9.428538 -0.692397 -1.223389 3.864842 -3.126752 -1.533412 -89.014730 -76.015375 107.010526 8.316155 4.241953 -24.572445 0.764684 -46.001535 9.116784 -88.940677 82.758932 -76.908913 -0.226190 -8.797977 -3.911583 0.098410 0.853100 -0.012187 -11.278875 -50.133194 17.157866 -149.497059 83.817735 -156.529087 0.430365 -12.918976 6.527233 -0.165796 -0.596051 -0.009661
1.704325 49.711945 41.567407 173.173636 -34.467762 -7.106826 5.781977 18.258084 5.984552 0.645493 2.316969 0.559223 1.027484 3.720707 0.886144 4.998779 15.924915 4.447254 -1.727917 16.118828 1.474997 -3.756182 -5.761327 3.366405 -0.814860 -1.343914 -2.714115 3.560806 -6.417957 2.594728 54.070326 -76.346372 -69.190620 4.936040 4.536947 16.954927 -9.431152 -0.676494 -1.221244 3.887793 -3.131350 -1.549472 -88.887159 -75.706242 107.059964 8.058428 4.393127 -25.253160 0.575677 -46.090861 9.171289 -89.342411 82.754110 -77.373390 -0.163075 -8.873890 -3.944930 0.102646 0.822212 -0.034726 -11.277664 -50.224737 17.176360 -149.329796 83.799253 -156.376086 0.427262 -12.939131 6.527775 -0.173680 -0.591089 -0.011741
